<svg viewBox="0 0 1497.069 488.63" height="488.63" width="1497.069" xmlns="http://www.w3.org/2000/svg" data-name="Layer 2" id="b">
  <g data-name="Layer 1" id="c">
    <g>
      <path fill="#fe4f02" d="M0,243.145C0,109.209,109.209,0,243.145,0c135.995,0,242.458,109.896,242.458,241.084,0,133.936-107.836,243.832-242.458,243.832C106.461,484.915,0,376.393,0,243.145ZM436.149,190.256c0-83.108-57.696-141.49-140.804-141.49-122.259,0-245.205,122.258-245.205,245.892,0,83.795,57.696,140.803,140.804,140.803,122.946,0,245.205-120.884,245.205-245.205Z"></path>
      <path fill="#fe4f02" d="M731.785,25.414v434.088l28.848,23.353h-264.437l27.473-23.353V25.414l-27.473-23.353h263.063l-27.475,23.353ZM654.858,25.414l-26.786-22.666-27.475,22.666v195.752h54.261V25.414ZM600.597,459.502l28.161,21.979,26.1-21.979v-206.742h-54.261v206.742Z"></path>
      <path fill="#fe4f02" d="M845.359,129.814v329.687l26.101,23.353h-83.795l26.1-23.353V24.04l-27.473-21.979h101.653l87.23,269.932L1049.353,2.061h103.027l-30.221,21.979v435.462l28.847,23.353h-133.935l28.16-23.353V142.863l-90.664,342.739-109.209-355.788Z"></path>
      <path fill="#fe4f02" d="M1207.795,25.414l-27.473-23.353h180.641v100.279l-30.908-68.685h-45.332v187.511h15.798l28.847-64.564v159.349l-28.16-63.192h-16.485v198.499h45.332l30.908-68.683v100.279h-180.641l27.473-23.353V25.414Z"></path>
      <path fill="#fe4f02" d="M1422.674,2.061h72.807l-24.04,371.585h-24.727L1422.674,2.061Z"></path>
      <circle fill="#fe4f02" r="36.422" cy="452.208" cx="1460.646"></circle>
    </g>
  </g>
</svg>